<svg width="558" height="1024" viewBox="0 0 558 1024" fill="none" xmlns="http://www.w3.org/2000/svg">
<rect width="558" height="1024" fill="#7A7FF1"/>
<path d="M1 0H558L0 374L1 0Z" fill="#2E56E3"/>
<path d="M243.5 211L558 0V702L243.5 211Z" fill="#5071E3"/>
<path d="M0 374L243.5 211L558 702L0 374Z" fill="#365FEB"/>
<path d="M1.5 375L477.5 1025H1.5V375Z" fill="#5258E3"/>
<path d="M163.381 503V367.727H245.02V382.259H179.761V424.531H214.108C223.795 424.531 231.964 426.116 238.613 429.287C245.306 432.457 250.37 436.927 253.805 442.695C257.283 448.464 259.023 455.267 259.023 463.105C259.023 470.943 257.283 477.857 253.805 483.845C250.37 489.834 245.306 494.523 238.613 497.914C231.964 501.305 223.795 503 214.108 503H163.381ZM179.761 488.733H214.108C220.273 488.733 225.491 487.5 229.762 485.034C234.077 482.524 237.336 479.31 239.538 475.391C241.783 471.428 242.906 467.244 242.906 462.841C242.906 456.368 240.418 450.798 235.442 446.13C230.467 441.418 223.355 439.062 214.108 439.062H179.761V488.733ZM387.104 435.364C387.104 449.631 384.528 461.96 379.376 472.352C374.224 482.744 367.157 490.759 358.174 496.395C349.191 502.031 338.931 504.849 327.394 504.849C315.857 504.849 305.597 502.031 296.614 496.395C287.631 490.759 280.564 482.744 275.412 472.352C270.26 461.96 267.684 449.631 267.684 435.364C267.684 421.097 270.26 408.767 275.412 398.375C280.564 387.983 287.631 379.969 296.614 374.332C305.597 368.696 315.857 365.878 327.394 365.878C338.931 365.878 349.191 368.696 358.174 374.332C367.157 379.969 374.224 387.983 379.376 398.375C384.528 408.767 387.104 421.097 387.104 435.364ZM371.252 435.364C371.252 423.651 369.293 413.765 365.374 405.707C361.499 397.648 356.237 391.55 349.587 387.411C342.982 383.271 335.585 381.202 327.394 381.202C319.204 381.202 311.784 383.271 305.135 387.411C298.53 391.55 293.268 397.648 289.349 405.707C285.474 413.765 283.536 423.651 283.536 435.364C283.536 447.077 285.474 456.962 289.349 465.021C293.268 473.079 298.53 479.178 305.135 483.317C311.784 487.456 319.204 489.526 327.394 489.526C335.585 489.526 342.982 487.456 349.587 483.317C356.237 479.178 361.499 473.079 365.374 465.021C369.293 456.962 371.252 447.077 371.252 435.364Z" fill="white"/>
<path d="M167.42 537.057L177.932 520.182H181.795V542H178.443V525.125L167.989 542H164.068V520.182H167.42V537.057ZM220.938 529.557V532.682H208.892V529.557H220.938ZM209.688 520.182V542H206.335V520.182H209.688ZM223.494 520.182V542H220.142V520.182H223.494ZM248.017 542V520.182H256.937C259.286 520.182 261.151 520.712 262.534 521.773C263.916 522.833 264.608 524.235 264.608 525.977C264.608 527.303 264.215 528.33 263.429 529.06C262.643 529.779 261.634 530.267 260.403 530.523C261.208 530.636 261.989 530.92 262.747 531.375C263.514 531.83 264.148 532.455 264.65 533.25C265.152 534.036 265.403 535.002 265.403 536.148C265.403 537.265 265.119 538.264 264.551 539.145C263.983 540.026 263.168 540.722 262.108 541.233C261.047 541.744 259.778 542 258.301 542H248.017ZM251.198 538.932H258.301C259.456 538.932 260.36 538.657 261.014 538.108C261.667 537.559 261.994 536.811 261.994 535.864C261.994 534.737 261.667 533.851 261.014 533.207C260.36 532.554 259.456 532.227 258.301 532.227H251.198V538.932ZM251.198 529.33H256.937C257.837 529.33 258.608 529.206 259.252 528.96C259.896 528.705 260.389 528.345 260.73 527.881C261.08 527.407 261.255 526.848 261.255 526.205C261.255 525.286 260.872 524.566 260.105 524.045C259.338 523.515 258.282 523.25 256.937 523.25H251.198V529.33ZM298.025 542.455C295.923 542.455 294.11 541.991 292.585 541.062C291.07 540.125 289.9 538.818 289.076 537.142C288.262 535.456 287.855 533.496 287.855 531.261C287.855 529.027 288.262 527.057 289.076 525.352C289.9 523.638 291.046 522.303 292.514 521.347C293.991 520.381 295.715 519.898 297.684 519.898C298.821 519.898 299.943 520.087 301.051 520.466C302.159 520.845 303.167 521.46 304.076 522.312C304.986 523.155 305.71 524.273 306.25 525.665C306.789 527.057 307.059 528.771 307.059 530.807V532.227H290.241V529.33H303.65C303.65 528.098 303.404 527 302.912 526.034C302.429 525.068 301.737 524.306 300.838 523.747C299.948 523.188 298.896 522.909 297.684 522.909C296.349 522.909 295.194 523.241 294.218 523.903C293.253 524.557 292.509 525.409 291.988 526.46C291.468 527.511 291.207 528.638 291.207 529.841V531.773C291.207 533.42 291.491 534.817 292.059 535.963C292.637 537.099 293.437 537.966 294.46 538.562C295.483 539.15 296.671 539.443 298.025 539.443C298.906 539.443 299.701 539.32 300.412 539.074C301.131 538.818 301.752 538.439 302.272 537.938C302.793 537.426 303.196 536.792 303.48 536.034L306.718 536.943C306.378 538.042 305.805 539.008 305 539.841C304.195 540.665 303.2 541.309 302.017 541.773C300.833 542.227 299.503 542.455 298.025 542.455ZM339.422 542.455C337.377 542.455 335.616 541.972 334.138 541.006C332.661 540.04 331.525 538.709 330.729 537.014C329.934 535.319 329.536 533.383 329.536 531.205C329.536 528.989 329.943 527.033 330.758 525.338C331.582 523.634 332.727 522.303 334.195 521.347C335.672 520.381 337.396 519.898 339.366 519.898C340.9 519.898 342.282 520.182 343.513 520.75C344.744 521.318 345.753 522.114 346.539 523.136C347.325 524.159 347.813 525.352 348.002 526.716H344.65C344.394 525.722 343.826 524.841 342.945 524.074C342.074 523.297 340.9 522.909 339.422 522.909C338.116 522.909 336.97 523.25 335.985 523.932C335.01 524.604 334.247 525.556 333.698 526.787C333.158 528.009 332.888 529.443 332.888 531.091C332.888 532.777 333.154 534.244 333.684 535.494C334.224 536.744 334.981 537.715 335.957 538.406C336.941 539.098 338.097 539.443 339.422 539.443C340.294 539.443 341.084 539.292 341.795 538.989C342.505 538.686 343.106 538.25 343.599 537.682C344.091 537.114 344.441 536.432 344.65 535.636H348.002C347.813 536.924 347.344 538.084 346.596 539.116C345.857 540.139 344.877 540.954 343.655 541.56C342.443 542.156 341.032 542.455 339.422 542.455ZM369.584 523.307V520.182H387.311V523.307H380.152V542H376.8V523.307H369.584Z" fill="white"/>
</svg>
