<svg width="155" height="155" viewBox="0 0 155 155" fill="none" xmlns="http://www.w3.org/2000/svg">
<path d="M145.312 16.5366L138.463 9.6875L9.6875 138.463L16.5366 145.312L26.2241 135.625H125.938C128.506 135.621 130.967 134.599 132.783 132.783C134.599 130.967 135.621 128.506 135.625 125.938V26.2241L145.312 16.5366ZM125.938 125.938H35.9116L73.6589 88.1902L85.1822 99.7134C86.9989 101.53 89.4625 102.55 92.0312 102.55C94.6 102.55 97.0636 101.53 98.8803 99.7134L106.562 92.0312L125.938 111.392V125.938ZM125.938 97.6887L113.412 85.1628C111.595 83.3467 109.131 82.3264 106.562 82.3264C103.994 82.3264 101.53 83.3467 99.7134 85.1628L92.0312 92.845L80.5177 81.3314L125.938 35.9116V97.6887ZM29.0625 106.562V92.0312L53.2812 67.827L59.9317 74.4823L66.7905 67.6236L60.1303 60.9634C58.3136 59.1473 55.85 58.1271 53.2812 58.1271C50.7125 58.1271 48.2489 59.1473 46.4322 60.9634L29.0625 78.3331V29.0625H106.562V19.375H29.0625C26.494 19.3776 24.0314 20.399 22.2152 22.2152C20.399 24.0314 19.3776 26.494 19.375 29.0625V106.562H29.0625Z" fill="#B1B1B1"/>
</svg>
