<svg width="135" height="32" viewBox="0 0 135 32" fill="none" xmlns="http://www.w3.org/2000/svg">
<path d="M75.9999 2.53525e-06L135 1.70474e-05L135 8.5L61.5 18.5L75.9999 2.53525e-06Z" fill="#2B58F6"/>
<path d="M0.5 0L105.5 31.5H0.5V0Z" fill="#2E56E3"/>
<path d="M61.5 18.5L0.500006 0.000103875L76 0.000102997L61.5 18.5Z" fill="#476EF7"/>
<path d="M61.5 18.5L135 0V13.5C135 23.4411 126.941 31.5 117 31.5H105L61.5 18.5Z" fill="#5F82FC"/>
<path d="M22.4113 21V7.90909H30.8296V9.89702H24.7828V12.9652H27.3076C28.309 12.9652 29.1677 13.1293 29.8836 13.4574C30.6038 13.7812 31.1556 14.2393 31.5392 14.8317C31.9227 15.424 32.1144 16.1207 32.1144 16.9219C32.1144 17.7273 31.9227 18.4368 31.5392 19.0504C31.1556 19.6598 30.6038 20.1371 29.8836 20.4822C29.1677 20.8274 28.309 21 27.3076 21H22.4113ZM24.7828 19.0568H27.3076C27.836 19.0568 28.2835 18.9567 28.6499 18.7564C29.0164 18.5561 29.2934 18.2919 29.4809 17.9638C29.6727 17.6357 29.7686 17.2798 29.7686 16.8963C29.7686 16.3423 29.5555 15.8714 29.1294 15.4837C28.7075 15.0916 28.1002 14.8956 27.3076 14.8956H24.7828V19.0568ZM45.8861 14.4545C45.8861 15.8651 45.6219 17.0732 45.0935 18.0788C44.5693 19.0803 43.8534 19.8473 42.9458 20.38C42.0423 20.9126 41.0175 21.179 39.8712 21.179C38.7249 21.179 37.6979 20.9126 36.7902 20.38C35.8868 19.843 35.1709 19.0739 34.6425 18.0724C34.1183 17.0668 33.8563 15.8608 33.8563 14.4545C33.8563 13.044 34.1183 11.8381 34.6425 10.8366C35.1709 9.83097 35.8868 9.06179 36.7902 8.52912C37.6979 7.99645 38.7249 7.73011 39.8712 7.73011C41.0175 7.73011 42.0423 7.99645 42.9458 8.52912C43.8534 9.06179 44.5693 9.83097 45.0935 10.8366C45.6219 11.8381 45.8861 13.044 45.8861 14.4545ZM43.5019 14.4545C43.5019 13.4616 43.3463 12.6243 43.0352 11.9425C42.7284 11.2564 42.3023 10.7386 41.7568 10.3892C41.2114 10.0355 40.5828 9.85866 39.8712 9.85866C39.1595 9.85866 38.531 10.0355 37.9855 10.3892C37.4401 10.7386 37.0118 11.2564 36.7007 11.9425C36.3939 12.6243 36.2405 13.4616 36.2405 14.4545C36.2405 15.4474 36.3939 16.2869 36.7007 16.973C37.0118 17.6548 37.4401 18.1726 37.9855 18.5263C38.531 18.8757 39.1595 19.0504 39.8712 19.0504C40.5828 19.0504 41.2114 18.8757 41.7568 18.5263C42.3023 18.1726 42.7284 17.6548 43.0352 16.973C43.3463 16.2869 43.5019 15.4474 43.5019 14.4545ZM54.7215 17.8679L58.6526 11.1818H61.0305V21H58.7932V14.3075L54.8749 21H52.4907V11.1818H54.7215V17.8679ZM70.1503 15.1321V17.0305H64.9216V15.1321H70.1503ZM65.6375 11.1818V21H63.4067V11.1818H65.6375ZM71.6652 11.1818V21H69.4408V11.1818H71.6652ZM74.0063 21V11.1818H78.1292C79.2925 11.1818 80.2108 11.4141 80.8841 11.8786C81.5617 12.343 81.9005 12.9908 81.9005 13.8217C81.9005 14.3714 81.7087 14.821 81.3252 15.1705C80.9459 15.5156 80.4282 15.7479 79.7719 15.8672C80.2876 15.9098 80.7393 16.0398 81.127 16.2571C81.5191 16.4744 81.8259 16.7599 82.0475 17.1136C82.2691 17.4673 82.3799 17.8743 82.3799 18.3345C82.3799 18.8757 82.2371 19.3466 81.9516 19.7472C81.6704 20.1435 81.2591 20.4524 80.718 20.674C80.181 20.8913 79.529 21 78.762 21H74.0063ZM76.1732 19.1783H78.762C79.1881 19.1783 79.5226 19.0781 79.7655 18.8778C80.0084 18.6733 80.1299 18.3963 80.1299 18.0469C80.1299 17.642 80.0084 17.3246 79.7655 17.0945C79.5226 16.8601 79.1881 16.7429 78.762 16.7429H76.1732V19.1783ZM76.1732 15.2472H78.1739C78.4893 15.2472 78.7599 15.2024 78.9857 15.1129C79.2116 15.0192 79.3841 14.8892 79.5035 14.723C79.6228 14.5526 79.6824 14.3501 79.6824 14.1158C79.6824 13.7791 79.5439 13.5149 79.267 13.3232C78.9942 13.1314 78.615 13.0355 78.1292 13.0355H76.1732V15.2472ZM88.6361 21.1918C87.6517 21.1918 86.8016 20.9872 86.0857 20.5781C85.374 20.1648 84.8264 19.581 84.4429 18.8267C84.0594 18.0682 83.8676 17.1754 83.8676 16.1484C83.8676 15.1385 84.0594 14.2521 84.4429 13.4893C84.8307 12.7223 85.3719 12.1257 86.0665 11.6996C86.7611 11.2692 87.5771 11.054 88.5146 11.054C89.1198 11.054 89.6908 11.152 90.2277 11.348C90.7689 11.5398 91.2462 11.8381 91.6595 12.2429C92.0771 12.6477 92.4053 13.1634 92.6439 13.7898C92.8825 14.4119 93.0019 15.1534 93.0019 16.0142V16.7237H84.9543V15.1641H90.7838C90.7796 14.7209 90.6837 14.3267 90.4962 13.9815C90.3087 13.6321 90.0466 13.3572 89.71 13.157C89.3776 12.9567 88.9898 12.8565 88.5466 12.8565C88.0736 12.8565 87.6581 12.9716 87.3002 13.2017C86.9422 13.4276 86.6631 13.7259 86.4628 14.0966C86.2668 14.4631 86.1666 14.8658 86.1624 15.3047V16.6662C86.1624 17.2372 86.2668 17.7273 86.4756 18.1364C86.6844 18.5412 86.9763 18.8523 87.3513 19.0696C87.7263 19.2827 88.1652 19.3892 88.6681 19.3892C89.0047 19.3892 89.3094 19.3423 89.5821 19.2486C89.8548 19.1506 90.0914 19.0078 90.2916 18.8203C90.4919 18.6328 90.6432 18.4006 90.7455 18.1236L92.906 18.3665C92.7696 18.9375 92.5097 19.4361 92.1262 19.8622C91.7469 20.2841 91.2611 20.6122 90.6688 20.8466C90.0764 21.0767 89.3989 21.1918 88.6361 21.1918ZM99.2421 21.1918C98.262 21.1918 97.4204 20.9766 96.7172 20.5462C96.0184 20.1158 95.4793 19.5213 95.1001 18.7628C94.7251 18 94.5376 17.1222 94.5376 16.1293C94.5376 15.1321 94.7293 14.2521 95.1128 13.4893C95.4964 12.7223 96.0376 12.1257 96.7364 11.6996C97.4395 11.2692 98.2705 11.054 99.2293 11.054C100.026 11.054 100.731 11.201 101.345 11.495C101.963 11.7848 102.455 12.196 102.822 12.7287C103.188 13.2571 103.397 13.875 103.448 14.5824H101.236C101.147 14.1094 100.934 13.7152 100.597 13.3999C100.265 13.0803 99.8195 12.9205 99.2613 12.9205C98.7883 12.9205 98.3728 13.0483 98.0148 13.304C97.6569 13.5554 97.3778 13.9176 97.1775 14.3906C96.9814 14.8636 96.8834 15.4304 96.8834 16.0909C96.8834 16.7599 96.9814 17.3352 97.1775 17.8168C97.3735 18.294 97.6483 18.6626 98.002 18.9226C98.36 19.1783 98.7797 19.3061 99.2613 19.3061C99.6022 19.3061 99.9069 19.2422 100.175 19.1143C100.448 18.9822 100.676 18.7926 100.859 18.5455C101.043 18.2983 101.168 17.9979 101.236 17.6442H103.448C103.393 18.3388 103.188 18.9545 102.834 19.4915C102.481 20.0241 101.999 20.4418 101.39 20.7443C100.78 21.0426 100.065 21.1918 99.2421 21.1918ZM104.635 13.0803V11.1818H113.226V13.0803H110.049V21H107.812V13.0803H104.635Z" fill="white"/>
</svg>
