<svg width="80" height="76" viewBox="0 0 80 76" fill="none" xmlns="http://www.w3.org/2000/svg">
<path d="M43.3287 3.86271L49.8521 23.9397C50.4546 25.7938 52.1824 27.0491 54.1319 27.0491H75.2421C78.6326 27.0491 80.0423 31.3878 77.2993 33.3807L60.2208 45.789C58.6436 46.9349 57.9837 48.966 58.5861 50.8201L65.1095 70.8972C66.1572 74.1217 62.4666 76.8032 59.7236 74.8103L42.645 62.402C41.0678 61.2561 38.9322 61.2561 37.355 62.402L20.2764 74.8103C17.5334 76.8032 13.8428 74.1217 14.8905 70.8972L21.4139 50.8201C22.0163 48.966 21.3564 46.9349 19.7792 45.789L2.70065 33.3807C-0.0423422 31.3878 1.36737 27.0491 4.75791 27.0491H25.8681C27.8176 27.0491 29.5454 25.7938 30.1479 23.9397L36.6713 3.86271C37.719 0.638121 42.281 0.638123 43.3287 3.86271Z" stroke="black"/>
</svg>
